<svg height="512" viewBox="0 0 58 58" width="512" xmlns="http://www.w3.org/2000/svg"><g id="001---Gardening" fill="none"><path id="Shape" d="m58 4.84s-.05.52-.2 1.34c-.42 2.23-1.63 6.66-4.89 8.85-3.24 2.17-7.62 1.51-9.76.99-.4363152-.1001451-.8669356-.2236564-1.29-.37 0 0 .04-.5.19-1.3.42-2.21 1.63-6.69 4.9-8.89 3.26-2.18 7.66-1.5 9.79-.98h.01c.78.19 1.25.36 1.25.36z" fill="#4fba6f"/><path id="Shape" d="m38.14 15.65c-.4230644.1463436-.8536848.2698549-1.29.37-2.14.52-6.52 1.18-9.76-.99-3.26-2.19-4.47-6.62-4.89-8.85-.15-.82-.2-1.34-.2-1.34s.47-.17 1.25-.36h.01c2.13-.52 6.53-1.2 9.79.98 3.27 2.2 4.48 6.68 4.9 8.89.15.8.19 1.3.19 1.3z" fill="#4fba6f"/><path id="Shape" d="m58 4.84s-.05.52-.2 1.34l-14.65 9.84-.67.45c-.15.13-.73.9-1.43 5.19l-.05 3.34c0 .5522847-.4477153 1-1 1s-1-.4477153-1-1l-.05-3.35c-.7-4.19-1.24-5.02-1.44-5.19l-.66-.44-14.65-9.84c-.15-.82-.2-1.34-.2-1.34s.47-.17 1.25-.36h.01l14.69 9.87.71.48c.672154.6027687 1.1404072 1.399498 1.34 2.28.1886268-.8975142.6706276-1.7067125 1.37-2.3l.68-.46 14.69-9.87h.01c.78.19 1.25.36 1.25.36z" fill="#4c8056"/><path id="Shape" d="m53.238 34-2.987 23.128c-.0643695.4987502-.4891132.8721136-.992.872h-18.518c-.5028868.0001136-.9276305-.3732498-.992-.872l-2.987-23.128 13.238-3z" fill="#a56a43"/><path id="Shape" d="m55.991 26.129-.909 7c-.0648292.4983533-.4894478.8711786-.992.871h-28.18c-.5025522.0001786-.9271708-.3726467-.992-.871l-.909-7c-.0370994-.2851886.0503808-.5725443.2400997-.7886822s.4633088-.3401324.7509003-.3403178h30c.2875915.0001854.5611814.1241799.7509003.3403178s.2771991.5034936.2400997.7886822z" fill="#cb8252"/><path id="Shape" d="m30 30h-2c-.5522847 0-1-.4477153-1-1s.4477153-1 1-1h2c.5522847 0 1 .4477153 1 1s-.4477153 1-1 1z" fill="#f9c795"/><path id="Shape" d="m41 30h-7c-.5522847 0-1-.4477153-1-1s.4477153-1 1-1h7c.5522847 0 1 .4477153 1 1s-.4477153 1-1 1z" fill="#f9c795"/><path id="Shape" d="m20 35.857c0 7.343-5 22.143-10 22.143s-10-14.8-10-22.143 4.477-8.857 10-8.857 10 1.52 10 8.857z" fill="#95a5a5"/><path id="Shape" d="m8 21.46v5.63l-.9.12c.27 2.86 1.11 9.79 2.9 9.79s2.63-6.93 2.9-9.79l-.9-.12v-5.63z" fill="#7f8c8d"/><rect id="Rectangle-path" fill="#805333" height="22" rx="4" width="8" x="6"/><circle id="Oval" cx="10" cy="4" fill="#603e26" r="1"/></g></svg>